<svg xmlns="http://www.w3.org/2000/svg" data-name="Layer 1" viewBox="0 0 512 512"><path fill="#918291" d="m474.56 503.79-270 .71a30 30 0 0 1-30.06-30v-437a30 30 0 0 1 29.94-30l270-.71a30 30 0 0 1 30.06 30v437a30 30 0 0 1-29.94 30Z"/><path fill="#7a6d79" d="M256.48 392.94a137.43 137.43 0 0 0-82-125.76V474.5a30 30 0 0 0 25.3 29.63 137.22 137.22 0 0 0 56.7-111.19Z"/><rect width="60" height="45" x="219.5" y="236.75" fill="#f3f0f3" rx="10"/><rect width="60" height="45" x="219.5" y="326.75" fill="#f3f0f3" rx="10"/><path fill="#e2dee2" d="M239.49 326.75h-10a10 10 0 0 0-10 10v25a10 10 0 0 0 10 10h25.34a136.4 136.4 0 0 0-15.34-45Z"/><rect width="60" height="45" x="219.5" y="414.56" fill="#f3f0f3" rx="10"/><path fill="#e2dee2" d="M229.5 414.57a10 10 0 0 0-10 10v25a10 10 0 0 0 10 10h9.76a136.27 136.27 0 0 0 15.51-45Z"/><rect width="60" height="45" x="309.5" y="236.75" fill="#f3f0f3" rx="10"/><rect width="60" height="45" x="399.5" y="236.75" fill="#f3f0f3" rx="10"/><rect width="60" height="45" x="309.5" y="326.75" fill="#f3f0f3" rx="10"/><rect width="60" height="45" x="309.5" y="414.56" fill="#f3f0f3" rx="10"/><rect width="60" height="132.81" x="399.5" y="326.75" fill="#f3f0f3" rx="10"/><path fill="#fd4755" d="M279.5 199.5h-60a7.5 7.5 0 0 1 0-15h60a7.5 7.5 0 0 1 0 15Z"/><path fill="#fedf30" d="M369.5 199.5h-60a7.5 7.5 0 0 1 0-15h60a7.5 7.5 0 0 1 0 15Z"/><path fill="#22b37f" d="M459.5 199.5h-60a7.5 7.5 0 0 1 0-15h60a7.5 7.5 0 0 1 0 15Z"/><rect width="240" height="105" x="219.5" y="52.5" fill="#fff" rx="15"/><path fill="#918291" d="M340.15 78a1.8 1.8 0 0 0-.08-.21 8.61 8.61 0 0 0-8-5.35 8.62 8.62 0 0 0-8 5.37L324 78l-18.8 49.35a7.5 7.5 0 1 0 14 5.34l2.84-7.46h19.85l2.8 7.44a7.51 7.51 0 0 0 7 4.85 7.69 7.69 0 0 0 2.65-.48 7.51 7.51 0 0 0 4.37-9.67zm-12.35 32.24 4.26-11.18 4.22 11.18zM428 125.71l-15.81-22.49 13.33-18.93a7.5 7.5 0 1 0-12.26-8.64L403 90.19l-10.21-14.53a7.5 7.5 0 1 0-12.27 8.63l13.32 18.93L378 125.71a7.5 7.5 0 1 0 12.26 8.64l12.74-18.1 12.73 18.09a7.5 7.5 0 1 0 12.27-8.63zM279.82 72.47h-27.64a7.5 7.5 0 0 0 0 15h6.26V130a7.5 7.5 0 1 0 15 0V87.47h6.38a7.5 7.5 0 0 0 0-15z"/><circle cx="119.06" cy="392.94" r="111.56" fill="#fd4755"/><path fill="#fb2b3a" d="M181.51 300.49a111.57 111.57 0 0 1-154.9 154.9 111.56 111.56 0 1 0 154.9-154.9Z"/><path fill="#fff" d="M144.8 332.19a7.51 7.51 0 0 0-9.82 4L90.74 441.6a7.5 7.5 0 1 0 13.83 5.81L148.81 342a7.51 7.51 0 0 0-4.01-9.81zm-34.3 24.72c0-16.66-12.14-30.22-27-30.22s-27 13.56-27 30.22 12.13 30.21 27 30.21 27-13.55 27-30.21zm-27 15.21c-6.64 0-12-6.83-12-15.21s5.4-15.22 12-15.22 12 6.83 12 15.22-5.41 15.21-12.05 15.21zm71.95 26.64c-14.91 0-27 13.55-27 30.21s12.13 30.21 27 30.21S182.5 445.63 182.5 429s-12.14-30.24-27.05-30.24zm0 45.42c-6.64 0-12-6.82-12-15.21s5.4-15.21 12-15.21 12.05 6.82 12.05 15.24-5.41 15.18-12.05 15.18z"/><path fill="#ebebeb" d="M147.64 457.89a24.23 24.23 0 0 0 7.81 1.29c14.91 0 27.05-13.55 27.05-30.21a34.69 34.69 0 0 0-.31-4.59 112.17 112.17 0 0 1-34.55 33.51Z"/></svg>