<svg xmlns="http://www.w3.org/2000/svg" viewBox="0 0 32 32"><path d="M30.68 10.65L21.39 20v0l9.28 9.33A3.08 3.08 0 0 0 31 28V12A3.08 3.08 0 0 0 30.68 10.65zM16.71 24.71l-.15.12h0a1.2 1.2 0 0 1-.31.13 1 1 0 0 1-.48 0 1.2 1.2 0 0 1-.31-.13h0l-.15-.12L12 21.44 2.77 30.73A3 3 0 0 0 4 31H28a3 3 0 0 0 1.23-.27L20 21.44zM10.61 20L1.32 10.65A3.08 3.08 0 0 0 1 12V28a3.08 3.08 0 0 0 .32 1.35L10.6 20z"/><path d="M29.23,9.27A3,3,0,0,0,28,9H26V4a3,3,0,0,0-3-3H9A3,3,0,0,0,6,4V9H4a3,3,0,0,0-1.23.27L16,22.58ZM18.56,6.68A1,1,0,0,1,20,5.32l.62.67.62-.67a1,1,0,1,1,1.46,1.36L22,7.46l.72.77a1,1,0,0,1-.05,1.42,1,1,0,0,1-.68.26,1,1,0,0,1-.73-.32l-.62-.66L20,9.59a1,1,0,0,1-.74.32,1,1,0,0,1-.68-.26,1,1,0,0,1-.05-1.42l.72-.77ZM15.69,5a1,1,0,0,1,.87.54l1.49,2.92a1,1,0,0,1-.43,1.34,1,1,0,0,1-.46.11,1,1,0,0,1-.89-.54l-.62-1.22L15,9.39a1,1,0,0,1-1.35.4,1,1,0,0,1-.41-1.35l1.58-2.92A1,1,0,0,1,15.69,5ZM9,6a1,1,0,0,1,1-1h3a1,1,0,0,1,0,2h-.48V9a1,1,0,0,1-2,0V7H10A1,1,0,0,1,9,6Zm1,7a1,1,0,0,1,1-1H21a1,1,0,0,1,0,2H11A1,1,0,0,1,10,13Z"/></svg>